<mxfile host="app.diagrams.net" agent="Mozilla/5.0 (Windows NT 10.0; Win64; x64) AppleWebKit/537.36 (KHTML, like Gecko) Chrome/130.0.0.0 Safari/537.36" version="24.8.3">
  <diagram name="Trang-1" id="8JDqOSwiKG6TQ53-_eAv">
    <mxGraphModel dx="1793" dy="965" grid="1" gridSize="10" guides="1" tooltips="1" connect="1" arrows="1" fold="1" page="1" pageScale="1" pageWidth="827" pageHeight="1169" math="0" shadow="0">
      <root>
        <mxCell id="0" />
        <mxCell id="1" parent="0" />
        <mxCell id="vL8TN6q_P8kp17YSHXBX-14" value="" style="rounded=0;whiteSpace=wrap;html=1;" vertex="1" parent="1">
          <mxGeometry x="40" y="440" width="1080" height="320" as="geometry" />
        </mxCell>
        <mxCell id="vL8TN6q_P8kp17YSHXBX-11" value="" style="rounded=0;whiteSpace=wrap;html=1;" vertex="1" parent="1">
          <mxGeometry x="40" y="40" width="1080" height="320" as="geometry" />
        </mxCell>
        <mxCell id="vL8TN6q_P8kp17YSHXBX-1" value="INIT" style="ellipse;whiteSpace=wrap;html=1;" vertex="1" parent="1">
          <mxGeometry x="80" y="160" width="120" height="80" as="geometry" />
        </mxCell>
        <mxCell id="vL8TN6q_P8kp17YSHXBX-2" value="GREEN_RED" style="ellipse;whiteSpace=wrap;html=1;" vertex="1" parent="1">
          <mxGeometry x="280" y="160" width="120" height="80" as="geometry" />
        </mxCell>
        <mxCell id="vL8TN6q_P8kp17YSHXBX-3" value="YELLOW_RED" style="ellipse;whiteSpace=wrap;html=1;" vertex="1" parent="1">
          <mxGeometry x="480" y="160" width="120" height="80" as="geometry" />
        </mxCell>
        <mxCell id="vL8TN6q_P8kp17YSHXBX-4" value="RED_GREEN" style="ellipse;whiteSpace=wrap;html=1;" vertex="1" parent="1">
          <mxGeometry x="680" y="160" width="120" height="80" as="geometry" />
        </mxCell>
        <mxCell id="vL8TN6q_P8kp17YSHXBX-5" value="RED_YELLOW" style="ellipse;whiteSpace=wrap;html=1;" vertex="1" parent="1">
          <mxGeometry x="960" y="160" width="120" height="80" as="geometry" />
        </mxCell>
        <mxCell id="vL8TN6q_P8kp17YSHXBX-6" value="duration_Y" style="endArrow=classic;html=1;rounded=0;exitX=0;exitY=0;exitDx=0;exitDy=0;entryX=1;entryY=0;entryDx=0;entryDy=0;" edge="1" parent="1" source="vL8TN6q_P8kp17YSHXBX-5" target="vL8TN6q_P8kp17YSHXBX-2">
          <mxGeometry width="50" height="50" relative="1" as="geometry">
            <mxPoint x="886.334368540005" y="142.1114561800017" as="sourcePoint" />
            <mxPoint x="173" y="170" as="targetPoint" />
            <Array as="points">
              <mxPoint x="920" y="80" />
              <mxPoint x="440" y="80" />
            </Array>
          </mxGeometry>
        </mxCell>
        <mxCell id="vL8TN6q_P8kp17YSHXBX-7" value="Start" style="endArrow=classic;html=1;rounded=0;entryX=0;entryY=0.5;entryDx=0;entryDy=0;" edge="1" parent="1" source="vL8TN6q_P8kp17YSHXBX-1" target="vL8TN6q_P8kp17YSHXBX-2">
          <mxGeometry width="50" height="50" relative="1" as="geometry">
            <mxPoint x="210" y="290" as="sourcePoint" />
            <mxPoint x="260" y="240" as="targetPoint" />
          </mxGeometry>
        </mxCell>
        <mxCell id="vL8TN6q_P8kp17YSHXBX-8" value="duration_G" style="endArrow=classic;html=1;rounded=0;exitX=1;exitY=0.5;exitDx=0;exitDy=0;" edge="1" parent="1" source="vL8TN6q_P8kp17YSHXBX-2">
          <mxGeometry width="50" height="50" relative="1" as="geometry">
            <mxPoint x="430" y="250" as="sourcePoint" />
            <mxPoint x="480" y="200" as="targetPoint" />
          </mxGeometry>
        </mxCell>
        <mxCell id="vL8TN6q_P8kp17YSHXBX-9" value="duration_Y" style="endArrow=classic;html=1;rounded=0;entryX=0;entryY=0.5;entryDx=0;entryDy=0;" edge="1" parent="1" target="vL8TN6q_P8kp17YSHXBX-4">
          <mxGeometry width="50" height="50" relative="1" as="geometry">
            <mxPoint x="600" y="199.5" as="sourcePoint" />
            <mxPoint x="670" y="199.5" as="targetPoint" />
            <mxPoint as="offset" />
          </mxGeometry>
        </mxCell>
        <mxCell id="vL8TN6q_P8kp17YSHXBX-10" value="duration_R - duration_Y" style="endArrow=classic;html=1;rounded=0;entryX=0;entryY=0.5;entryDx=0;entryDy=0;" edge="1" parent="1" target="vL8TN6q_P8kp17YSHXBX-5">
          <mxGeometry width="50" height="50" relative="1" as="geometry">
            <mxPoint x="800" y="199.5" as="sourcePoint" />
            <mxPoint x="960" y="200" as="targetPoint" />
          </mxGeometry>
        </mxCell>
        <mxCell id="vL8TN6q_P8kp17YSHXBX-12" value="&lt;font style=&quot;font-size: 22px;&quot;&gt;FSM_Auto&lt;/font&gt;" style="text;html=1;align=center;verticalAlign=middle;resizable=0;points=[];autosize=1;strokeColor=none;fillColor=none;" vertex="1" parent="1">
          <mxGeometry x="515" y="320" width="130" height="40" as="geometry" />
        </mxCell>
        <mxCell id="vL8TN6q_P8kp17YSHXBX-13" value="isButton1Pressed() == 1" style="endArrow=classic;html=1;rounded=0;entryX=0.5;entryY=0;entryDx=0;entryDy=0;" edge="1" parent="1" source="vL8TN6q_P8kp17YSHXBX-11" target="vL8TN6q_P8kp17YSHXBX-14">
          <mxGeometry width="50" height="50" relative="1" as="geometry">
            <mxPoint x="479.99999999999994" y="370.0000000000001" as="sourcePoint" />
            <mxPoint x="580" y="430" as="targetPoint" />
          </mxGeometry>
        </mxCell>
        <mxCell id="vL8TN6q_P8kp17YSHXBX-16" value="INIT&lt;div&gt;Duration_ADD = 0&lt;/div&gt;" style="ellipse;whiteSpace=wrap;html=1;" vertex="1" parent="1">
          <mxGeometry x="200" y="580" width="120" height="80" as="geometry" />
        </mxCell>
        <mxCell id="vL8TN6q_P8kp17YSHXBX-17" value="Duration_ADD++&lt;div&gt;Display7SEG&lt;/div&gt;" style="ellipse;whiteSpace=wrap;html=1;" vertex="1" parent="1">
          <mxGeometry x="520" y="580" width="120" height="80" as="geometry" />
        </mxCell>
        <mxCell id="vL8TN6q_P8kp17YSHXBX-18" value="Duration_R + Duration_ADD&lt;div&gt;Duration_ADD = 0&lt;/div&gt;" style="ellipse;whiteSpace=wrap;html=1;" vertex="1" parent="1">
          <mxGeometry x="840" y="580" width="200" height="80" as="geometry" />
        </mxCell>
        <mxCell id="vL8TN6q_P8kp17YSHXBX-19" value="isButton2Pressed() == 1" style="endArrow=classic;html=1;rounded=0;entryX=0;entryY=0.5;entryDx=0;entryDy=0;exitX=1;exitY=0.5;exitDx=0;exitDy=0;" edge="1" parent="1" source="vL8TN6q_P8kp17YSHXBX-16" target="vL8TN6q_P8kp17YSHXBX-17">
          <mxGeometry width="50" height="50" relative="1" as="geometry">
            <mxPoint x="450" y="645" as="sourcePoint" />
            <mxPoint x="500" y="595" as="targetPoint" />
          </mxGeometry>
        </mxCell>
        <mxCell id="vL8TN6q_P8kp17YSHXBX-21" value="isButton2Pressed() == 1" style="curved=1;endArrow=classic;html=1;rounded=0;exitX=1;exitY=0;exitDx=0;exitDy=0;entryX=0.217;entryY=0.1;entryDx=0;entryDy=0;entryPerimeter=0;" edge="1" parent="1" source="vL8TN6q_P8kp17YSHXBX-17">
          <mxGeometry x="0.356" y="11" width="50" height="50" relative="1" as="geometry">
            <mxPoint x="613.94" y="586" as="sourcePoint" />
            <mxPoint x="546.02" y="588" as="targetPoint" />
            <Array as="points">
              <mxPoint x="565.98" y="440" />
            </Array>
            <mxPoint as="offset" />
          </mxGeometry>
        </mxCell>
        <mxCell id="vL8TN6q_P8kp17YSHXBX-22" value="isButton3Pressed() == 1" style="endArrow=classic;html=1;rounded=0;exitX=1;exitY=0.5;exitDx=0;exitDy=0;entryX=0;entryY=0.5;entryDx=0;entryDy=0;" edge="1" parent="1" source="vL8TN6q_P8kp17YSHXBX-17" target="vL8TN6q_P8kp17YSHXBX-18">
          <mxGeometry width="50" height="50" relative="1" as="geometry">
            <mxPoint x="655" y="630" as="sourcePoint" />
            <mxPoint x="705" y="580" as="targetPoint" />
          </mxGeometry>
        </mxCell>
        <mxCell id="vL8TN6q_P8kp17YSHXBX-24" value="isButton2Pressed() == 1" style="curved=1;endArrow=classic;html=1;rounded=0;exitX=0;exitY=1;exitDx=0;exitDy=0;entryX=0.758;entryY=0.938;entryDx=0;entryDy=0;entryPerimeter=0;" edge="1" parent="1" source="vL8TN6q_P8kp17YSHXBX-18" target="vL8TN6q_P8kp17YSHXBX-17">
          <mxGeometry width="50" height="50" relative="1" as="geometry">
            <mxPoint x="899.02" y="660" as="sourcePoint" />
            <mxPoint x="600.98" y="664.96" as="targetPoint" />
            <Array as="points">
              <mxPoint x="710" y="700" />
            </Array>
          </mxGeometry>
        </mxCell>
        <mxCell id="vL8TN6q_P8kp17YSHXBX-25" value="&lt;font style=&quot;font-size: 22px;&quot;&gt;FSM_EDIT (EDIT_RED)&lt;/font&gt;" style="text;html=1;align=center;verticalAlign=middle;resizable=0;points=[];autosize=1;strokeColor=none;fillColor=none;" vertex="1" parent="1">
          <mxGeometry x="450" y="720" width="260" height="40" as="geometry" />
        </mxCell>
        <mxCell id="vL8TN6q_P8kp17YSHXBX-26" value="" style="rounded=0;whiteSpace=wrap;html=1;" vertex="1" parent="1">
          <mxGeometry x="1320" y="440" width="1080" height="320" as="geometry" />
        </mxCell>
        <mxCell id="vL8TN6q_P8kp17YSHXBX-27" value="INIT&lt;div&gt;Duration_ADD = 0&lt;/div&gt;" style="ellipse;whiteSpace=wrap;html=1;" vertex="1" parent="1">
          <mxGeometry x="1480" y="580" width="120" height="80" as="geometry" />
        </mxCell>
        <mxCell id="vL8TN6q_P8kp17YSHXBX-28" value="Duration_ADD++&lt;div&gt;Display7SEG&lt;/div&gt;" style="ellipse;whiteSpace=wrap;html=1;" vertex="1" parent="1">
          <mxGeometry x="1800" y="580" width="120" height="80" as="geometry" />
        </mxCell>
        <mxCell id="vL8TN6q_P8kp17YSHXBX-29" value="Duration_Y + Duration_ADD&lt;div&gt;Duration_ADD = 0&lt;/div&gt;" style="ellipse;whiteSpace=wrap;html=1;" vertex="1" parent="1">
          <mxGeometry x="2120" y="580" width="200" height="80" as="geometry" />
        </mxCell>
        <mxCell id="vL8TN6q_P8kp17YSHXBX-30" value="isButton2Pressed() == 1" style="endArrow=classic;html=1;rounded=0;entryX=0;entryY=0.5;entryDx=0;entryDy=0;exitX=1;exitY=0.5;exitDx=0;exitDy=0;" edge="1" parent="1" source="vL8TN6q_P8kp17YSHXBX-27" target="vL8TN6q_P8kp17YSHXBX-28">
          <mxGeometry width="50" height="50" relative="1" as="geometry">
            <mxPoint x="1730" y="645" as="sourcePoint" />
            <mxPoint x="1780" y="595" as="targetPoint" />
          </mxGeometry>
        </mxCell>
        <mxCell id="vL8TN6q_P8kp17YSHXBX-31" value="isButton2Pressed() == 1" style="curved=1;endArrow=classic;html=1;rounded=0;exitX=1;exitY=0;exitDx=0;exitDy=0;entryX=0.217;entryY=0.1;entryDx=0;entryDy=0;entryPerimeter=0;" edge="1" parent="1" source="vL8TN6q_P8kp17YSHXBX-28">
          <mxGeometry x="0.356" y="11" width="50" height="50" relative="1" as="geometry">
            <mxPoint x="1893.94" y="586" as="sourcePoint" />
            <mxPoint x="1826.02" y="588" as="targetPoint" />
            <Array as="points">
              <mxPoint x="1845.98" y="440" />
            </Array>
            <mxPoint as="offset" />
          </mxGeometry>
        </mxCell>
        <mxCell id="vL8TN6q_P8kp17YSHXBX-32" value="isButton3Pressed() == 1" style="endArrow=classic;html=1;rounded=0;exitX=1;exitY=0.5;exitDx=0;exitDy=0;entryX=0;entryY=0.5;entryDx=0;entryDy=0;" edge="1" parent="1" source="vL8TN6q_P8kp17YSHXBX-28" target="vL8TN6q_P8kp17YSHXBX-29">
          <mxGeometry width="50" height="50" relative="1" as="geometry">
            <mxPoint x="1935" y="630" as="sourcePoint" />
            <mxPoint x="1985" y="580" as="targetPoint" />
          </mxGeometry>
        </mxCell>
        <mxCell id="vL8TN6q_P8kp17YSHXBX-33" value="isButton2Pressed() == 1" style="curved=1;endArrow=classic;html=1;rounded=0;exitX=0;exitY=1;exitDx=0;exitDy=0;entryX=0.758;entryY=0.938;entryDx=0;entryDy=0;entryPerimeter=0;" edge="1" parent="1" source="vL8TN6q_P8kp17YSHXBX-29" target="vL8TN6q_P8kp17YSHXBX-28">
          <mxGeometry width="50" height="50" relative="1" as="geometry">
            <mxPoint x="2179.02" y="660" as="sourcePoint" />
            <mxPoint x="1880.98" y="664.96" as="targetPoint" />
            <Array as="points">
              <mxPoint x="1990" y="700" />
            </Array>
          </mxGeometry>
        </mxCell>
        <mxCell id="vL8TN6q_P8kp17YSHXBX-34" value="&lt;font style=&quot;font-size: 22px;&quot;&gt;FSM_EDIT (EDIT_YELLOW)&lt;/font&gt;" style="text;html=1;align=center;verticalAlign=middle;resizable=0;points=[];autosize=1;strokeColor=none;fillColor=none;" vertex="1" parent="1">
          <mxGeometry x="1705" y="720" width="310" height="40" as="geometry" />
        </mxCell>
        <mxCell id="vL8TN6q_P8kp17YSHXBX-37" value="" style="rounded=0;whiteSpace=wrap;html=1;" vertex="1" parent="1">
          <mxGeometry x="1320" y="40" width="1080" height="320" as="geometry" />
        </mxCell>
        <mxCell id="vL8TN6q_P8kp17YSHXBX-38" value="INIT&lt;div&gt;Duration_ADD = 0&lt;/div&gt;" style="ellipse;whiteSpace=wrap;html=1;" vertex="1" parent="1">
          <mxGeometry x="1480" y="180" width="120" height="80" as="geometry" />
        </mxCell>
        <mxCell id="vL8TN6q_P8kp17YSHXBX-39" value="Duration_ADD++&lt;div&gt;Display7SEG&lt;/div&gt;" style="ellipse;whiteSpace=wrap;html=1;" vertex="1" parent="1">
          <mxGeometry x="1800" y="180" width="120" height="80" as="geometry" />
        </mxCell>
        <mxCell id="vL8TN6q_P8kp17YSHXBX-40" value="Duration_G + Duration_ADD&lt;div&gt;Duration_ADD = 0&lt;/div&gt;" style="ellipse;whiteSpace=wrap;html=1;" vertex="1" parent="1">
          <mxGeometry x="2120" y="180" width="200" height="80" as="geometry" />
        </mxCell>
        <mxCell id="vL8TN6q_P8kp17YSHXBX-41" value="isButton2Pressed() == 1" style="endArrow=classic;html=1;rounded=0;entryX=0;entryY=0.5;entryDx=0;entryDy=0;exitX=1;exitY=0.5;exitDx=0;exitDy=0;" edge="1" parent="1" source="vL8TN6q_P8kp17YSHXBX-38" target="vL8TN6q_P8kp17YSHXBX-39">
          <mxGeometry width="50" height="50" relative="1" as="geometry">
            <mxPoint x="1730" y="245" as="sourcePoint" />
            <mxPoint x="1780" y="195" as="targetPoint" />
          </mxGeometry>
        </mxCell>
        <mxCell id="vL8TN6q_P8kp17YSHXBX-42" value="isButton2Pressed() == 1" style="curved=1;endArrow=classic;html=1;rounded=0;exitX=1;exitY=0;exitDx=0;exitDy=0;entryX=0.217;entryY=0.1;entryDx=0;entryDy=0;entryPerimeter=0;" edge="1" parent="1" source="vL8TN6q_P8kp17YSHXBX-39">
          <mxGeometry x="0.356" y="11" width="50" height="50" relative="1" as="geometry">
            <mxPoint x="1893.94" y="186" as="sourcePoint" />
            <mxPoint x="1826.02" y="188" as="targetPoint" />
            <Array as="points">
              <mxPoint x="1845.98" y="40" />
            </Array>
            <mxPoint as="offset" />
          </mxGeometry>
        </mxCell>
        <mxCell id="vL8TN6q_P8kp17YSHXBX-43" value="isButton3Pressed() == 1" style="endArrow=classic;html=1;rounded=0;exitX=1;exitY=0.5;exitDx=0;exitDy=0;entryX=0;entryY=0.5;entryDx=0;entryDy=0;" edge="1" parent="1" source="vL8TN6q_P8kp17YSHXBX-39" target="vL8TN6q_P8kp17YSHXBX-40">
          <mxGeometry width="50" height="50" relative="1" as="geometry">
            <mxPoint x="1935" y="230" as="sourcePoint" />
            <mxPoint x="1985" y="180" as="targetPoint" />
          </mxGeometry>
        </mxCell>
        <mxCell id="vL8TN6q_P8kp17YSHXBX-44" value="isButton2Pressed() == 1" style="curved=1;endArrow=classic;html=1;rounded=0;exitX=0;exitY=1;exitDx=0;exitDy=0;entryX=0.758;entryY=0.938;entryDx=0;entryDy=0;entryPerimeter=0;" edge="1" parent="1" source="vL8TN6q_P8kp17YSHXBX-40" target="vL8TN6q_P8kp17YSHXBX-39">
          <mxGeometry width="50" height="50" relative="1" as="geometry">
            <mxPoint x="2179.02" y="260" as="sourcePoint" />
            <mxPoint x="1880.98" y="264.96000000000004" as="targetPoint" />
            <Array as="points">
              <mxPoint x="1990" y="300" />
            </Array>
          </mxGeometry>
        </mxCell>
        <mxCell id="vL8TN6q_P8kp17YSHXBX-45" value="&lt;font style=&quot;font-size: 22px;&quot;&gt;FSM_EDIT (EDIT_GREEN)&lt;/font&gt;" style="text;html=1;align=center;verticalAlign=middle;resizable=0;points=[];autosize=1;strokeColor=none;fillColor=none;" vertex="1" parent="1">
          <mxGeometry x="1715" y="320" width="290" height="40" as="geometry" />
        </mxCell>
        <mxCell id="vL8TN6q_P8kp17YSHXBX-49" value="isButton1Pressed() == 1" style="endArrow=classic;html=1;rounded=0;exitX=1;exitY=0.5;exitDx=0;exitDy=0;entryX=0;entryY=0.5;entryDx=0;entryDy=0;" edge="1" parent="1" source="vL8TN6q_P8kp17YSHXBX-14" target="vL8TN6q_P8kp17YSHXBX-26">
          <mxGeometry width="50" height="50" relative="1" as="geometry">
            <mxPoint x="1130" y="595" as="sourcePoint" />
            <mxPoint x="1280" y="645" as="targetPoint" />
          </mxGeometry>
        </mxCell>
        <mxCell id="vL8TN6q_P8kp17YSHXBX-50" value="isButton1Pressed() == 1" style="endArrow=classic;html=1;rounded=0;entryX=0.503;entryY=1;entryDx=0;entryDy=0;entryPerimeter=0;exitX=0.5;exitY=0;exitDx=0;exitDy=0;" edge="1" parent="1" source="vL8TN6q_P8kp17YSHXBX-26" target="vL8TN6q_P8kp17YSHXBX-45">
          <mxGeometry width="50" height="50" relative="1" as="geometry">
            <mxPoint x="1800" y="460" as="sourcePoint" />
            <mxPoint x="1850" y="410" as="targetPoint" />
          </mxGeometry>
        </mxCell>
        <mxCell id="vL8TN6q_P8kp17YSHXBX-51" value="isButton1Pressed() == 1" style="endArrow=classic;html=1;rounded=0;exitX=0;exitY=0.5;exitDx=0;exitDy=0;entryX=1;entryY=0.5;entryDx=0;entryDy=0;" edge="1" parent="1" source="vL8TN6q_P8kp17YSHXBX-37" target="vL8TN6q_P8kp17YSHXBX-11">
          <mxGeometry width="50" height="50" relative="1" as="geometry">
            <mxPoint x="1200" y="230" as="sourcePoint" />
            <mxPoint x="1250" y="180" as="targetPoint" />
          </mxGeometry>
        </mxCell>
      </root>
    </mxGraphModel>
  </diagram>
</mxfile>
